<svg width="21" height="19" viewBox="0 0 21 19" fill="none" xmlns="http://www.w3.org/2000/svg">
<g id="Logo">
<path id="Ellipse " d="M16.9583 13.0963C16.2623 14.6531 15.1294 15.976 13.6961 16.9054C12.2628 17.8348 10.5904 18.3312 8.88058 18.3346C7.17071 18.338 5.49636 17.8483 4.05939 16.9245C2.62243 16.0008 1.48421 14.6824 0.78197 13.1284C0.079726 11.5743 -0.15656 9.851 0.1016 8.16613C0.359761 6.48127 1.10135 4.90681 2.23694 3.63258C3.37254 2.35836 4.85366 1.43877 6.50174 0.984696C8.14982 0.530621 9.89448 0.561444 11.5254 1.07345L10.4472 4.48592C9.47674 4.18126 8.43861 4.16292 7.45795 4.43311C6.47729 4.7033 5.59597 5.25048 4.92025 6.00869C4.24453 6.7669 3.80326 7.70375 3.64965 8.70631C3.49604 9.70886 3.63663 10.7343 4.05449 11.659C4.47235 12.5837 5.14963 13.3682 6.00467 13.9178C6.85971 14.4675 7.85601 14.7589 8.87344 14.7569C9.89087 14.7549 10.886 14.4595 11.7388 13.9065C12.5917 13.3534 13.2658 12.5663 13.68 11.6399L16.9583 13.0963Z" fill="#242731"/>
<g id="Plus">
<path id="Rectangle 5476" d="M11.2246 5.0827H20.6784V8.40058H11.2246V5.0827Z" fill="#796EFF"/>
<path id="Rectangle 5477" d="M14.1807 11.1565L14.1807 2.3219L17.7258 2.3219L17.7258 11.1565L14.1807 11.1565Z" fill="#796EFF"/>
</g>
</g>
</svg>
